<svg width="1431" height="1437" viewBox="0 0 1431 1437" fill="none" xmlns="http://www.w3.org/2000/svg">
<circle cx="715.242" cy="715.242" r="562.421" stroke="url(#paint0_linear_2_63)" stroke-width="1.45926"/>
<g style="mix-blend-mode:plus-lighter" filter="url(#filter0_f_2_63)">
<circle cx="715.242" cy="715.242" r="562.421" stroke="url(#paint1_linear_2_63)" stroke-width="4.37778"/>
</g>
<g style="mix-blend-mode:plus-lighter" filter="url(#filter1_f_2_63)">
<circle cx="715.242" cy="715.242" r="562.421" stroke="url(#paint2_linear_2_63)" stroke-width="5.83704"/>
</g>
<g style="mix-blend-mode:plus-lighter" filter="url(#filter2_f_2_63)">
<circle cx="715.242" cy="715.242" r="562.421" stroke="url(#paint3_linear_2_63)" stroke-width="5.83704"/>
</g>
<g style="mix-blend-mode:plus-lighter" filter="url(#filter3_f_2_63)">
<circle cx="715.242" cy="715.242" r="562.421" stroke="url(#paint4_linear_2_63)" stroke-width="7.2963"/>
</g>
<g style="mix-blend-mode:plus-lighter" filter="url(#filter4_f_2_63)">
<circle cx="715.242" cy="715.242" r="562.421" stroke="url(#paint5_linear_2_63)" stroke-width="11.6741"/>
</g>
<g style="mix-blend-mode:plus-lighter" filter="url(#filter5_f_2_63)">
<circle cx="715.242" cy="715.242" r="562.421" stroke="url(#paint6_linear_2_63)" stroke-width="17.5111"/>
</g>
<g style="mix-blend-mode:plus-lighter" filter="url(#filter6_f_2_63)">
<circle cx="715.242" cy="715.242" r="562.421" stroke="url(#paint7_linear_2_63)" stroke-width="17.5111"/>
</g>
<g style="mix-blend-mode:plus-lighter" filter="url(#filter7_f_2_63)">
<circle cx="715.242" cy="715.242" r="562.421" stroke="url(#paint8_linear_2_63)" stroke-width="58.3704"/>
</g>
<g filter="url(#filter8_g_2_63)">
<g style="mix-blend-mode:plus-lighter" filter="url(#filter9_g_2_63)">
<path d="M244.474 388.204V456.944L134.073 609.006L169.484 694.411L134.073 819.394L244.474 927.712L211.145 1088.11H342.377L594.425 1331.82L750.653 1250.58L921.463 1288.08L1067.28 1140.18L1144.35 1088.11" stroke="url(#paint9_linear_2_63)" stroke-width="4.37778"/>
</g>
<g filter="url(#filter10_gf_2_63)">
<path d="M244.474 388.204V456.944L134.073 609.006L169.484 694.411L134.073 819.394L244.474 927.712L211.145 1088.11H342.377L594.425 1331.82L750.653 1250.58L921.463 1288.08L1067.28 1140.18L1144.35 1088.11" stroke="url(#paint10_linear_2_63)" stroke-width="10.2148"/>
</g>
<g filter="url(#filter11_gf_2_63)">
<path d="M244.474 388.204V456.944L134.073 609.006L169.484 694.411L134.073 819.394L244.474 927.712L211.145 1088.11H342.377L594.425 1331.82L750.653 1250.58L921.463 1288.08L1067.28 1140.18L1144.35 1088.11" stroke="url(#paint11_linear_2_63)" stroke-width="10.2148"/>
</g>
<g style="mix-blend-mode:plus-lighter" filter="url(#filter12_g_2_63)">
<path d="M244.474 388.204V456.944L134.073 609.006L169.484 694.411L134.073 819.394L244.474 927.712L211.145 1088.11H342.377L594.425 1331.82L750.653 1250.58L921.463 1288.08L1067.28 1140.18L1144.35 1088.11" stroke="url(#paint12_linear_2_63)" stroke-width="1.45926"/>
</g>
</g>
<g style="mix-blend-mode:plus-lighter" filter="url(#filter13_f_2_63)">
<path d="M190.892 1044.25C189.621 1042.71 190.247 1040.37 192.121 1039.66L193.809 1039.03C194.977 1038.59 196.295 1038.95 197.088 1039.91L198.232 1041.3C199.504 1042.85 198.877 1045.19 197.004 1045.89L195.316 1046.52C194.148 1046.96 192.83 1046.61 192.037 1045.64L190.892 1044.25Z" fill="#6B21A8"/>
</g>
<g style="mix-blend-mode:plus-lighter" filter="url(#filter14_f_2_63)">
<path d="M423.822 1177.06C422.551 1175.51 423.177 1173.17 425.051 1172.47L426.739 1171.84C427.907 1171.4 429.225 1171.75 430.018 1172.71L431.163 1174.11C432.434 1175.65 431.808 1177.99 429.934 1178.69L428.246 1179.33C427.078 1179.76 425.76 1179.41 424.967 1178.45L423.822 1177.06Z" fill="#6B21A8" fill-opacity="0.25"/>
</g>
<g style="mix-blend-mode:plus-lighter" filter="url(#filter15_f_2_63)">
<path d="M275.785 1003.01C274.513 1001.46 275.14 999.122 277.014 998.419L281.189 996.853C282.357 996.415 283.675 996.768 284.468 997.732L287.3 1001.18C288.572 1002.72 287.945 1005.06 286.072 1005.76L281.896 1007.33C280.728 1007.77 279.41 1007.41 278.617 1006.45L275.785 1003.01Z" fill="#6B21A8" fill-opacity="0.25"/>
</g>
<g style="mix-blend-mode:plus-lighter" filter="url(#filter16_f_2_63)">
<path d="M187.605 1048.17C186.333 1046.62 186.96 1044.29 188.834 1043.58L193.009 1042.02C194.177 1041.58 195.495 1041.93 196.288 1042.9L199.12 1046.34C200.392 1047.89 199.765 1050.22 197.891 1050.93L193.716 1052.49C192.548 1052.93 191.23 1052.58 190.437 1051.61L187.605 1048.17Z" fill="#6B21A8" fill-opacity="0.25"/>
</g>
<g style="mix-blend-mode:plus-lighter" filter="url(#filter17_f_2_63)">
<path d="M773.122 982.346C772.027 981.015 772.567 979.001 774.181 978.395C775.188 978.018 776.323 978.322 777.006 979.152C778.101 980.484 777.561 982.498 775.947 983.103C774.941 983.481 773.805 983.177 773.122 982.346Z" fill="#6B21A8" fill-opacity="0.5"/>
</g>
<g style="mix-blend-mode:plus-lighter" filter="url(#filter18_f_2_63)">
<path d="M196.876 1128.7C195.781 1127.37 196.32 1125.36 197.934 1124.75C198.941 1124.37 200.076 1124.68 200.759 1125.51C201.854 1126.84 201.315 1128.85 199.701 1129.46C198.694 1129.84 197.559 1129.53 196.876 1128.7Z" fill="#6B21A8"/>
</g>
<g style="mix-blend-mode:plus-lighter" filter="url(#filter19_f_2_63)">
<path d="M293.314 1063.9C292.766 1063.23 293.036 1062.22 293.843 1061.92C294.347 1061.73 294.914 1061.88 295.256 1062.3C295.803 1062.97 295.534 1063.97 294.726 1064.27C294.223 1064.46 293.656 1064.31 293.314 1063.9Z" fill="#6B21A8"/>
</g>
<g style="mix-blend-mode:plus-lighter" filter="url(#filter20_f_2_63)">
<path d="M263.766 1140.77C263.219 1140.1 263.488 1139.1 264.296 1138.79C264.799 1138.6 265.366 1138.76 265.708 1139.17C266.256 1139.84 265.986 1140.84 265.179 1141.15C264.675 1141.34 264.108 1141.18 263.766 1140.77Z" fill="#6B21A8"/>
</g>
<g style="mix-blend-mode:plus-lighter" filter="url(#filter21_f_2_63)">
<path d="M110.842 976.609C110.295 975.943 110.565 974.936 111.372 974.633C111.875 974.444 112.443 974.597 112.784 975.012C113.332 975.677 113.062 976.684 112.255 976.987C111.752 977.176 111.184 977.024 110.842 976.609Z" fill="#6B21A8" fill-opacity="0.25"/>
</g>
<g style="mix-blend-mode:plus-lighter" filter="url(#filter22_f_2_63)">
<path d="M223.428 1182.75C222.88 1182.09 223.15 1181.08 223.957 1180.78C224.46 1180.59 225.028 1180.74 225.37 1181.16C225.917 1181.82 225.647 1182.83 224.84 1183.13C224.337 1183.32 223.769 1183.17 223.428 1182.75Z" fill="#6B21A8" fill-opacity="0.25"/>
</g>
<g style="mix-blend-mode:plus-lighter" filter="url(#filter23_f_2_63)">
<path d="M372.423 1102.69C371.876 1102.03 372.146 1101.02 372.953 1100.72C373.456 1100.53 374.024 1100.68 374.365 1101.09C374.913 1101.76 374.643 1102.77 373.836 1103.07C373.333 1103.26 372.765 1103.11 372.423 1102.69Z" fill="#6B21A8" fill-opacity="0.5"/>
</g>
<defs>
<filter id="filter0_f_2_63" x="144.794" y="144.794" width="1140.89" height="1140.89" filterUnits="userSpaceOnUse" color-interpolation-filters="sRGB">
<feFlood flood-opacity="0" result="BackgroundImageFix"/>
<feBlend mode="normal" in="SourceGraphic" in2="BackgroundImageFix" result="shape"/>
<feGaussianBlur stdDeviation="2.91852" result="effect1_foregroundBlur_2_63"/>
</filter>
<filter id="filter1_f_2_63" x="138.228" y="138.228" width="1154.03" height="1154.03" filterUnits="userSpaceOnUse" color-interpolation-filters="sRGB">
<feFlood flood-opacity="0" result="BackgroundImageFix"/>
<feBlend mode="normal" in="SourceGraphic" in2="BackgroundImageFix" result="shape"/>
<feGaussianBlur stdDeviation="5.83704" result="effect1_foregroundBlur_2_63"/>
</filter>
<filter id="filter2_f_2_63" x="132.391" y="132.391" width="1165.7" height="1165.7" filterUnits="userSpaceOnUse" color-interpolation-filters="sRGB">
<feFlood flood-opacity="0" result="BackgroundImageFix"/>
<feBlend mode="normal" in="SourceGraphic" in2="BackgroundImageFix" result="shape"/>
<feGaussianBlur stdDeviation="8.75556" result="effect1_foregroundBlur_2_63"/>
</filter>
<filter id="filter3_f_2_63" x="114.15" y="114.15" width="1202.18" height="1202.18" filterUnits="userSpaceOnUse" color-interpolation-filters="sRGB">
<feFlood flood-opacity="0" result="BackgroundImageFix"/>
<feBlend mode="normal" in="SourceGraphic" in2="BackgroundImageFix" result="shape"/>
<feGaussianBlur stdDeviation="17.5111" result="effect1_foregroundBlur_2_63"/>
</filter>
<filter id="filter4_f_2_63" x="100.287" y="100.287" width="1229.91" height="1229.91" filterUnits="userSpaceOnUse" color-interpolation-filters="sRGB">
<feFlood flood-opacity="0" result="BackgroundImageFix"/>
<feBlend mode="normal" in="SourceGraphic" in2="BackgroundImageFix" result="shape"/>
<feGaussianBlur stdDeviation="23.3481" result="effect1_foregroundBlur_2_63"/>
</filter>
<filter id="filter5_f_2_63" x="74.0205" y="74.0201" width="1282.44" height="1282.44" filterUnits="userSpaceOnUse" color-interpolation-filters="sRGB">
<feFlood flood-opacity="0" result="BackgroundImageFix"/>
<feBlend mode="normal" in="SourceGraphic" in2="BackgroundImageFix" result="shape"/>
<feGaussianBlur stdDeviation="35.0222" result="effect1_foregroundBlur_2_63"/>
</filter>
<filter id="filter6_f_2_63" x="27.3242" y="27.3238" width="1375.84" height="1375.84" filterUnits="userSpaceOnUse" color-interpolation-filters="sRGB">
<feFlood flood-opacity="0" result="BackgroundImageFix"/>
<feBlend mode="normal" in="SourceGraphic" in2="BackgroundImageFix" result="shape"/>
<feGaussianBlur stdDeviation="58.3704" result="effect1_foregroundBlur_2_63"/>
</filter>
<filter id="filter7_f_2_63" x="6.89452" y="6.89422" width="1416.69" height="1416.69" filterUnits="userSpaceOnUse" color-interpolation-filters="sRGB">
<feFlood flood-opacity="0" result="BackgroundImageFix"/>
<feBlend mode="normal" in="SourceGraphic" in2="BackgroundImageFix" result="shape"/>
<feGaussianBlur stdDeviation="58.3704" result="effect1_foregroundBlur_2_63"/>
</filter>
<filter id="filter8_g_2_63" x="83.1682" y="343.113" width="1109.13" height="1040.03" filterUnits="userSpaceOnUse" color-interpolation-filters="sRGB">
<feFlood flood-opacity="0" result="BackgroundImageFix"/>
<feBlend mode="normal" in="SourceGraphic" in2="BackgroundImageFix" result="shape"/>
<feTurbulence type="fractalNoise" baseFrequency="0.013956806622445583 0.013956806622445583" numOctaves="3" seed="9743" />
<feDisplacementMap in="shape" scale="90.182212829589844" xChannelSelector="R" yChannelSelector="G" result="displacedImage" width="100%" height="100%" />
<feMerge result="effect1_texture_2_63">
<feMergeNode in="displacedImage"/>
</feMerge>
</filter>
<filter id="filter9_g_2_63" x="33.227" y="289.85" width="1210.7" height="1143" filterUnits="userSpaceOnUse" color-interpolation-filters="sRGB">
<feFlood flood-opacity="0" result="BackgroundImageFix"/>
<feBlend mode="normal" in="SourceGraphic" in2="BackgroundImageFix" result="shape"/>
<feTurbulence type="fractalNoise" baseFrequency="0.0099999997764825821 0.0099999997764825821" numOctaves="3" seed="5014" />
<feDisplacementMap in="shape" scale="196.70814514160156" xChannelSelector="R" yChannelSelector="G" result="displacedImage" width="100%" height="100%" />
<feMerge result="effect1_texture_2_63">
<feMergeNode in="displacedImage"/>
</feMerge>
</filter>
<filter id="filter10_gf_2_63" x="29.9052" y="289.85" width="1215.66" height="1146.55" filterUnits="userSpaceOnUse" color-interpolation-filters="sRGB">
<feFlood flood-opacity="0" result="BackgroundImageFix"/>
<feBlend mode="normal" in="SourceGraphic" in2="BackgroundImageFix" result="shape"/>
<feTurbulence type="fractalNoise" baseFrequency="0.0099999997764825821 0.0099999997764825821" numOctaves="3" seed="5014" />
<feDisplacementMap in="shape" scale="196.70814514160156" xChannelSelector="R" yChannelSelector="G" result="displacedImage" width="100%" height="100%" />
<feMerge result="effect1_texture_2_63">
<feMergeNode in="displacedImage"/>
</feMerge>
<feGaussianBlur stdDeviation="14.5926" result="effect2_foregroundBlur_2_63"/>
</filter>
<filter id="filter11_gf_2_63" x="29.9052" y="289.85" width="1215.66" height="1146.55" filterUnits="userSpaceOnUse" color-interpolation-filters="sRGB">
<feFlood flood-opacity="0" result="BackgroundImageFix"/>
<feBlend mode="normal" in="SourceGraphic" in2="BackgroundImageFix" result="shape"/>
<feTurbulence type="fractalNoise" baseFrequency="0.0099999997764825821 0.0099999997764825821" numOctaves="3" seed="5014" />
<feDisplacementMap in="shape" scale="196.70814514160156" xChannelSelector="R" yChannelSelector="G" result="displacedImage" width="100%" height="100%" />
<feMerge result="effect1_texture_2_63">
<feMergeNode in="displacedImage"/>
</feMerge>
<feGaussianBlur stdDeviation="36.4815" result="effect2_foregroundBlur_2_63"/>
</filter>
<filter id="filter12_g_2_63" x="110.186" y="365.148" width="1057.63" height="990.621" filterUnits="userSpaceOnUse" color-interpolation-filters="sRGB">
<feFlood flood-opacity="0" result="BackgroundImageFix"/>
<feBlend mode="normal" in="SourceGraphic" in2="BackgroundImageFix" result="shape"/>
<feTurbulence type="fractalNoise" baseFrequency="0.0099999997764825821 0.0099999997764825821" numOctaves="3" seed="5014" />
<feDisplacementMap in="shape" scale="46.112586975097656" xChannelSelector="R" yChannelSelector="G" result="displacedImage" width="100%" height="100%" />
<feMerge result="effect1_texture_2_63">
<feMergeNode in="displacedImage"/>
</feMerge>
</filter>
<filter id="filter13_f_2_63" x="187.308" y="1035.93" width="14.5084" height="13.6992" filterUnits="userSpaceOnUse" color-interpolation-filters="sRGB">
<feFlood flood-opacity="0" result="BackgroundImageFix"/>
<feBlend mode="normal" in="SourceGraphic" in2="BackgroundImageFix" result="shape"/>
<feGaussianBlur stdDeviation="1.45926" result="effect1_foregroundBlur_2_63"/>
</filter>
<filter id="filter14_f_2_63" x="420.238" y="1168.73" width="14.5084" height="13.6992" filterUnits="userSpaceOnUse" color-interpolation-filters="sRGB">
<feFlood flood-opacity="0" result="BackgroundImageFix"/>
<feBlend mode="normal" in="SourceGraphic" in2="BackgroundImageFix" result="shape"/>
<feGaussianBlur stdDeviation="1.45926" result="effect1_foregroundBlur_2_63"/>
</filter>
<filter id="filter15_f_2_63" x="266.364" y="987.911" width="30.3583" height="28.3585" filterUnits="userSpaceOnUse" color-interpolation-filters="sRGB">
<feFlood flood-opacity="0" result="BackgroundImageFix"/>
<feBlend mode="normal" in="SourceGraphic" in2="BackgroundImageFix" result="shape"/>
<feGaussianBlur stdDeviation="4.37778" result="effect1_foregroundBlur_2_63"/>
</filter>
<filter id="filter16_f_2_63" x="184.02" y="1038.91" width="18.6842" height="16.6844" filterUnits="userSpaceOnUse" color-interpolation-filters="sRGB">
<feFlood flood-opacity="0" result="BackgroundImageFix"/>
<feBlend mode="normal" in="SourceGraphic" in2="BackgroundImageFix" result="shape"/>
<feGaussianBlur stdDeviation="1.45926" result="effect1_foregroundBlur_2_63"/>
</filter>
<filter id="filter17_f_2_63" x="769.63" y="975.317" width="10.8673" height="10.8655" filterUnits="userSpaceOnUse" color-interpolation-filters="sRGB">
<feFlood flood-opacity="0" result="BackgroundImageFix"/>
<feBlend mode="normal" in="SourceGraphic" in2="BackgroundImageFix" result="shape"/>
<feGaussianBlur stdDeviation="1.45926" result="effect1_foregroundBlur_2_63"/>
</filter>
<filter id="filter18_f_2_63" x="194.843" y="1123.13" width="7.94879" height="7.94696" filterUnits="userSpaceOnUse" color-interpolation-filters="sRGB">
<feFlood flood-opacity="0" result="BackgroundImageFix"/>
<feBlend mode="normal" in="SourceGraphic" in2="BackgroundImageFix" result="shape"/>
<feGaussianBlur stdDeviation="0.72963" result="effect1_foregroundBlur_2_63"/>
</filter>
<filter id="filter19_f_2_63" x="291.568" y="1060.38" width="5.43366" height="5.4328" filterUnits="userSpaceOnUse" color-interpolation-filters="sRGB">
<feFlood flood-opacity="0" result="BackgroundImageFix"/>
<feBlend mode="normal" in="SourceGraphic" in2="BackgroundImageFix" result="shape"/>
<feGaussianBlur stdDeviation="0.72963" result="effect1_foregroundBlur_2_63"/>
</filter>
<filter id="filter20_f_2_63" x="262.02" y="1137.25" width="5.43366" height="5.4328" filterUnits="userSpaceOnUse" color-interpolation-filters="sRGB">
<feFlood flood-opacity="0" result="BackgroundImageFix"/>
<feBlend mode="normal" in="SourceGraphic" in2="BackgroundImageFix" result="shape"/>
<feGaussianBlur stdDeviation="0.72963" result="effect1_foregroundBlur_2_63"/>
</filter>
<filter id="filter21_f_2_63" x="109.096" y="973.094" width="5.43366" height="5.4328" filterUnits="userSpaceOnUse" color-interpolation-filters="sRGB">
<feFlood flood-opacity="0" result="BackgroundImageFix"/>
<feBlend mode="normal" in="SourceGraphic" in2="BackgroundImageFix" result="shape"/>
<feGaussianBlur stdDeviation="0.72963" result="effect1_foregroundBlur_2_63"/>
</filter>
<filter id="filter22_f_2_63" x="221.682" y="1179.24" width="5.43366" height="5.4328" filterUnits="userSpaceOnUse" color-interpolation-filters="sRGB">
<feFlood flood-opacity="0" result="BackgroundImageFix"/>
<feBlend mode="normal" in="SourceGraphic" in2="BackgroundImageFix" result="shape"/>
<feGaussianBlur stdDeviation="0.72963" result="effect1_foregroundBlur_2_63"/>
</filter>
<filter id="filter23_f_2_63" x="370.677" y="1099.18" width="5.43366" height="5.4328" filterUnits="userSpaceOnUse" color-interpolation-filters="sRGB">
<feFlood flood-opacity="0" result="BackgroundImageFix"/>
<feBlend mode="normal" in="SourceGraphic" in2="BackgroundImageFix" result="shape"/>
<feGaussianBlur stdDeviation="0.72963" result="effect1_foregroundBlur_2_63"/>
</filter>
<linearGradient id="paint0_linear_2_63" x1="299.675" y1="1130.81" x2="1112.06" y2="318.422" gradientUnits="userSpaceOnUse">
<stop stop-color="#6B21A8"/>
<stop offset="0.6" stop-color="#874FB5" stop-opacity="0.5"/>
<stop offset="1" stop-opacity="0"/>
</linearGradient>
<linearGradient id="paint1_linear_2_63" x1="299.675" y1="1130.81" x2="1112.06" y2="318.422" gradientUnits="userSpaceOnUse">
<stop stop-color="#6B21A8"/>
<stop offset="0.7" stop-color="#8042B3" stop-opacity="0.5"/>
<stop offset="1" stop-opacity="0"/>
</linearGradient>
<linearGradient id="paint2_linear_2_63" x1="299.675" y1="1130.81" x2="953.75" y2="476.733" gradientUnits="userSpaceOnUse">
<stop stop-color="#6B21A8"/>
<stop offset="0.7" stop-color="#8651B3"/>
<stop offset="1" stop-opacity="0"/>
</linearGradient>
<linearGradient id="paint3_linear_2_63" x1="299.675" y1="1130.81" x2="885.01" y2="545.474" gradientUnits="userSpaceOnUse">
<stop stop-color="#6B21A8"/>
<stop offset="0.7" stop-color="#8451AE"/>
<stop offset="1" stop-opacity="0"/>
</linearGradient>
<linearGradient id="paint4_linear_2_63" x1="299.675" y1="1130.81" x2="715.242" y2="715.242" gradientUnits="userSpaceOnUse">
<stop stop-color="#6B21A8"/>
<stop offset="0.7" stop-color="#834EAF"/>
<stop offset="1" stop-opacity="0"/>
</linearGradient>
<linearGradient id="paint5_linear_2_63" x1="299.675" y1="1130.81" x2="612.131" y2="818.352" gradientUnits="userSpaceOnUse">
<stop stop-color="#6B21A8"/>
<stop offset="0.370192" stop-color="#AE7FD5"/>
<stop offset="1" stop-opacity="0"/>
</linearGradient>
<linearGradient id="paint6_linear_2_63" x1="299.675" y1="1130.81" x2="612.131" y2="818.352" gradientUnits="userSpaceOnUse">
<stop stop-color="#6B21A8"/>
<stop offset="0.341346" stop-color="#6B21A8" stop-opacity="0.7"/>
<stop offset="1" stop-opacity="0"/>
</linearGradient>
<linearGradient id="paint7_linear_2_63" x1="299.675" y1="1130.81" x2="482.982" y2="947.501" gradientUnits="userSpaceOnUse">
<stop stop-color="#6B21A8"/>
<stop offset="0.341346" stop-color="#6B21A8" stop-opacity="0.7"/>
<stop offset="1" stop-opacity="0"/>
</linearGradient>
<linearGradient id="paint8_linear_2_63" x1="299.675" y1="1130.81" x2="482.982" y2="947.501" gradientUnits="userSpaceOnUse">
<stop stop-color="#6B21A8"/>
<stop offset="0.341346" stop-color="#6B21A8" stop-opacity="0.7"/>
<stop offset="1" stop-opacity="0"/>
</linearGradient>
<linearGradient id="paint9_linear_2_63" x1="265.97" y1="1208.63" x2="609.216" y2="754.286" gradientUnits="userSpaceOnUse">
<stop stop-color="white"/>
<stop offset="0.6" stop-color="white" stop-opacity="0.5"/>
<stop offset="1" stop-opacity="0"/>
</linearGradient>
<linearGradient id="paint10_linear_2_63" x1="265.97" y1="1208.63" x2="652.049" y2="740.945" gradientUnits="userSpaceOnUse">
<stop stop-color="#6B21A8"/>
<stop offset="0.6" stop-color="#6B21A8" stop-opacity="0.5"/>
<stop offset="1" stop-color="#6F62FF" stop-opacity="0"/>
</linearGradient>
<linearGradient id="paint11_linear_2_63" x1="265.97" y1="1208.63" x2="729.935" y2="676.628" gradientUnits="userSpaceOnUse">
<stop stop-color="#6B21A8"/>
<stop offset="0.6" stop-color="#6B21A8" stop-opacity="0.5"/>
<stop offset="1" stop-color="#9C62FF" stop-opacity="0"/>
</linearGradient>
<linearGradient id="paint12_linear_2_63" x1="265.97" y1="1208.63" x2="609.216" y2="754.286" gradientUnits="userSpaceOnUse">
<stop stop-color="white"/>
<stop offset="0.6" stop-color="white" stop-opacity="0.5"/>
<stop offset="1" stop-opacity="0"/>
</linearGradient>
</defs>
</svg>
